<svg xmlns="http://www.w3.org/2000/svg" viewBox="0 0 24 24">
  <rect width="24" height="24" rx="6" fill="#05070c"/>
  <path d="M14.8 4.8c.4 2.4 1.7 3.8 4.1 4v3.1c-1.4 0-2.7-.4-4-1.2v5.5c0 3-2 5-5 5-2.8 0-4.8-1.8-4.8-4.4 0-2.9 2.3-4.8 5.5-4.5v3.2c-1.3-.3-2.3.3-2.3 1.3 0 .9.7 1.5 1.7 1.5 1.1 0 1.7-.8 1.7-2.2V4.8h3.1Z" fill="#fff"/>
  <path d="M16 8.3c.7.8 1.6 1.2 2.9 1.3v1.4c-1.5-.1-2.8-.5-4-1.3v-.9c.4.1.8 0 1.1-.5Z" fill="#25f4ee"/>
  <path d="M9.2 13.9c-1.8.1-3.1 1.2-3.1 2.9 0 1.7 1.4 3 3.6 3 .7 0 1.4-.1 1.9-.4-.7.9-1.7 1.4-3 1.4-2.2 0-4-1.7-4-4 0-2.7 2.2-4.7 5.2-4.5v1.5l-.6.1Z" fill="#fe2c55"/>
</svg>
